<svg xmlns="http://www.w3.org/2000/svg" xmlns:xlink="http://www.w3.org/1999/xlink" viewBox="0 0 280 80" preserveAspectRatio="xMidYMid" style="display: block; shape-rendering: auto; background: rgb(255, 255, 255);" width="280" height="80"><style type="text/css">
  .ld-text text {
    text-anchor: middle;
    dominant-baseline: middle;
    font-size: 55px;
    opacity: 0;
    user-select: none;
    pointer-events: none;
  }
</style>
<g style="transform-origin:140px 40px;transform:scale(1)" class="ld-text">
<g transform="translate(140,40)">
  <g transform="scale(0.6875) translate(0,0)"><g class="path" style="opacity: 1; transform-origin: -136.84px 19.47px; transform: matrix3d(1, 0, 0, 0, 0, 1, 0, 0, 0, 0, 1, 0, 0, 0, 0, 1); animation: 1s linear -0.565714s infinite normal forwards running animate-xqflvsu5z; transform-box: view-box;"><path d="M83.44 42.85L83.44 42.85Q85.52 42.85 87.44 40.61L87.44 40.61L88.64 41.57Q88.40 41.89 88 42.37Q87.60 42.85 86.04 43.65Q84.48 44.45 82.64 44.45L82.64 44.45Q73.68 44.45 73.68 36.69L73.68 36.69Q73.68 34.29 74.24 29.57L74.24 29.57Q70.40 30.77 67.36 30.77L67.36 30.77Q62 30.77 56.64 27.49L56.64 27.49Q53.52 32.85 50.80 36.65Q48.08 40.45 44.48 44.05L44.48 44.05Q37.04 51.33 26.52 51.33Q16 51.33 9.76 44.61L9.76 44.61Q4.24 38.45 4.24 29.61Q4.24 20.77 9.92 13.89Q15.60 7.01 24.64 7.01Q33.68 7.01 38.40 12.37L38.40 12.37Q39.52 13.81 40 14.53L40 14.53Q44.32 16.37 49.84 20.61L49.84 20.61Q54 23.97 56 25.25L56 25.25Q57.12 23.17 59.08 19.65Q61.04 16.13 62.08 14.29Q63.12 12.45 65.20 9.09Q67.28 5.73 68.60 4.01Q69.92 2.29 72.12-0.31Q74.32-2.91 76.16-4.19L76.16-4.19Q81.68-8.11 85.44-8.75L85.44-8.75Q87.52-9.07 88.96-9.07Q90.40-9.07 92.16-9.03Q93.92-8.99 97.12-8.11L97.12-8.11L96.72-6.59Q94.80-7.15 92.64-7.39L92.64-7.39Q84.64 24.05 83.44 42.85 zM42.56 23.81L42.56 23.81Q42.56 29.73 39.16 34.29Q35.76 38.85 30 38.85L30 38.85Q26.24 38.85 23.88 36.61Q21.52 34.37 21.52 31.97Q21.52 29.57 22.24 28.01Q22.96 26.45 23.88 25.65Q24.80 24.85 25.92 24.37L25.92 24.37Q27.44 23.57 28.32 23.57L28.32 23.57L28.48 25.17Q26.48 25.17 24.80 27.09Q23.12 29.01 23.12 31.41Q23.12 33.81 25 35.53Q26.88 37.25 30 37.25L30 37.25Q35.12 37.25 38.08 33.25Q41.04 29.25 41.04 24.37Q41.04 19.49 39.04 15.89L39.04 15.89Q34.64 14.21 30.32 14.21L30.32 14.21Q22 14.21 18.56 21.97L18.56 21.97L17.04 21.49Q17.92 19.49 19.84 17.17L19.84 17.17Q23.60 12.61 30.32 12.61L30.32 12.61Q33.92 12.61 37.44 13.65L37.44 13.65L37.28 13.41Q32.88 8.61 24.60 8.61Q16.32 8.61 11.08 15.01Q5.84 21.41 5.84 29.69Q5.84 37.97 10.96 43.49L10.96 43.49Q16.72 49.73 27.04 49.73L27.04 49.73Q36.48 49.73 43.52 42.61L43.52 42.61Q47.04 39.17 49.64 35.49Q52.24 31.81 55.28 26.61L55.28 26.61Q52.56 24.85 48.68 21.77Q44.80 18.69 41.20 16.85L41.20 16.85Q42.56 20.21 42.56 23.81 zM60.48 20.61L57.44 26.13Q62.56 29.17 66.84 29.17Q71.12 29.17 74.48 27.81L74.48 27.81Q76.40 14.29 81.68-5.79L81.68-5.79Q75.28-2.75 69.92 5.01L69.92 5.01Q66 10.61 60.48 20.61L60.48 20.61" style="fill: rgb(3, 126, 243);" transform="translate(-187.520,-19.783)"></path></g><g class="path" style="opacity: 1; transform-origin: -74.92px 11.15px; transform: matrix3d(1, 0, 0, 0, 0, 1, 0, 0, 0, 0, 1, 0, 0, 0, 0, 1); animation: 1s linear -0.471429s infinite normal forwards running animate-xqflvsu5z; transform-box: view-box;"><path d="M111.20 40.29L111.20 40.29Q106.16 40.29 103.84 36.93L103.84 36.93L97.12 41.73L95.60 41.73L104.56-10.67Q102.16-10.43 100.56-8.43L100.56-8.43L99.36-9.39Q101.76-12.27 105.40-12.27Q109.04-12.27 111.04-10.43Q113.04-8.59 113.04-5.23L113.04-5.23Q113.04-4.59 112.88-3.15L112.88-3.15Q111.60 3.97 109.76 13.97L109.76 13.97Q113.12 8.53 118.48 8.53Q123.84 8.53 126.72 11.61Q129.60 14.69 129.60 20.05L129.60 20.05Q129.60 29.49 124.48 34.89Q119.36 40.29 111.20 40.29 zM110.64 38.13L110.64 38.13Q115.04 38.13 117.80 32.01Q120.56 25.89 120.56 16.77L120.56 16.77Q120.56 13.09 119.80 11.73Q119.04 10.37 117.04 10.37Q115.04 10.37 112.92 12.77Q110.80 15.17 109.84 17.29Q108.88 19.41 108.88 19.73L108.88 19.73L108.72 19.73Q106.72 30.21 105.76 35.57L105.76 35.57Q107.12 38.13 110.64 38.13" style="fill: rgb(248, 90, 64);" transform="translate(-187.520,-19.783)"></path></g><g class="path" style="opacity: 1; transform-origin: -38.32px 14.14px; transform: matrix3d(1, 0, 0, 0, 0, 1, 0, 0, 0, 0, 1, 0, 0, 0, 0, 1); animation: 1s linear -0.377143s infinite normal forwards running animate-xqflvsu5z; transform-box: view-box;"><path d="M146.08 40.29Q139.92 40.29 136.72 37.21Q133.52 34.13 133.52 29.45Q133.52 24.77 134.36 21.45Q135.20 18.13 137.12 15.05Q139.04 11.97 142.92 10.21Q146.80 8.45 152.60 8.45Q158.40 8.45 161.64 11.53Q164.88 14.61 164.88 19.97L164.88 19.97Q164.88 29.09 160.04 34.69Q155.20 40.29 146.08 40.29L146.08 40.29 zM142.56 32.05L142.56 32.05Q142.56 38.45 146.28 38.45Q150 38.45 152.92 32.01Q155.84 25.57 155.84 16.69L155.84 16.69Q155.84 9.97 152.20 9.97Q148.56 9.97 145.56 16.09Q142.56 22.21 142.56 32.05" style="fill: rgb(48, 195, 158);" transform="translate(-187.520,-19.783)"></path></g><g class="path" style="opacity: 1; transform-origin: -1.08px 14.14px; transform: matrix3d(1, 0, 0, 0, 0, 1, 0, 0, 0, 0, 1, 0, 0, 0, 0, 1); animation: 1s linear -0.282857s infinite normal forwards running animate-xqflvsu5z; transform-box: view-box;"><path d="M173.76 10.05L173.76 10.05Q171.84 10.05 169.76 12.29L169.76 12.29L168.56 11.33Q169.12 10.21 171.04 9.33Q172.96 8.45 175.28 8.45L175.28 8.45Q182.56 8.45 182.56 15.01L182.56 15.01Q182.56 17.81 181.12 25.01Q179.68 32.21 179.68 34.45L179.68 34.45Q179.68 37.89 182.96 37.89L182.96 37.89Q185.28 37.89 187.48 35.17Q189.68 32.45 191.28 27.65L191.28 27.65L194.64 9.17Q200.56 9.17 203.28 8.69L203.28 8.69L204.32 8.45L198.96 38.69Q201.36 38.45 202.96 36.45L202.96 36.45L204.16 37.41Q201.76 40.29 198.16 40.29Q194.56 40.29 192.56 38.53Q190.56 36.77 190.48 33.57L190.48 33.57Q187.12 40.29 180.56 40.29L180.56 40.29Q175.84 40.29 173.20 37.61Q170.56 34.93 170.56 30.21L170.56 30.21Q170.56 27.73 172.08 20.65Q173.60 13.57 173.76 10.05" style="fill: rgb(10, 142, 160);" transform="translate(-187.520,-19.783)"></path></g><g class="path" style="opacity: 1; transform-origin: 33.76px 11.77px; transform: matrix3d(1, 0, 0, 0, 0, 1, 0, 0, 0, 0, 1, 0, 0, 0, 0, 1); animation: 1s linear -0.188571s infinite normal forwards running animate-xqflvsu5z; transform-box: view-box;"><path d="M209.60 9.17L213.68 9.17L215.84-2.67Q221.76-2.67 224.64-3.15L224.64-3.15L225.68-3.39Q224.56 2.21 223.20 9.17L223.20 9.17L233.12 9.17L232.96 10.61L222.96 10.61Q218.96 31.25 218.96 35.49L218.96 35.49Q218.96 38.05 221.68 38.05Q224.40 38.05 226.64 34.61Q228.88 31.17 229.84 27.17L229.84 27.17L231.28 27.65Q228.32 40.29 219.04 40.29L219.04 40.29Q215.20 40.29 212.64 38.17Q210.08 36.05 210.08 32.25Q210.08 28.45 213.36 10.61L213.36 10.61L209.44 10.61L209.60 9.17" style="fill: rgb(244, 137, 36);" transform="translate(-187.520,-19.783)"></path></g><g class="path" style="opacity: 1; transform-origin: 99.56px 12.16px; transform: matrix3d(1, 0, 0, 0, 0, 1, 0, 0, 0, 0, 1, 0, 0, 0, 0, 1); animation: 1s linear -0.0942857s infinite normal forwards running animate-xqflvsu5z; transform-box: view-box;"><path d="M285.68-4.67L285.68-4.67Q279.36-7.39 271.96-7.39Q264.56-7.39 259.96-2.67Q255.36 2.05 255.36 9.65L255.36 9.65L253.60 9.65Q253.60 1.33 258.72-3.91Q263.84-9.15 271.84-9.15L271.84-9.15Q278.24-9.15 285.68-6.67L285.68-6.67Q294.24-3.55 304.24-3.55L304.24-3.55L304.24-1.87Q298.24-1.87 294.64-2.43L294.64-2.43Q293.68 1.57 291.84 8.65Q290 15.73 289.28 19.45Q288.56 23.17 288.56 27.09Q288.56 31.01 291.24 33.53Q293.92 36.05 298.16 36.05Q302.40 36.05 305.24 33.21Q308.08 30.37 309.44 27.01L309.44 27.01L318.88-13.63L320.56-13.63L309.36 34.45Q308.64 37.41 308.64 38.45L308.64 38.45Q308.64 41.81 311.76 41.81L311.76 41.81Q314 41.81 315.68 39.49L315.68 39.49L316.80 40.45Q316.24 41.49 314.80 42.41Q313.36 43.33 311.32 43.33Q309.28 43.33 308.12 41.97Q306.96 40.61 306.96 38.69L306.96 38.69L307.92 33.41L308.32 31.57Q306.16 34.93 302.52 37.61Q298.88 40.29 294.48 40.29L294.48 40.29Q287.12 40.29 283.20 36.41Q279.28 32.53 279.28 25.89L279.28 25.89Q279.28 20.61 280.40 16.05Q281.52 11.49 283.12 5.37Q284.72-0.75 285.68-4.67" style="fill: rgb(255, 200, 69);" transform="translate(-187.520,-19.783)"></path></g><g class="path" style="opacity: 1; transform-origin: 164.68px 22.57px; transform: matrix3d(1, 0, 0, 0, 0, 1, 0, 0, 0, 0, 1, 0, 0, 0, 0, 1); animation: 1s linear 0s infinite normal forwards running animate-xqflvsu5z; transform-box: view-box;"><path d="M343.36 55.09L343.36 55.09Q351.76 55.09 356.44 51.65Q361.12 48.21 361.12 42.53L361.12 42.53Q361.12 38.45 359.08 35.33Q357.04 32.21 354 30.17Q350.96 28.13 347.80 26.13Q344.64 24.13 341.92 21.09Q339.20 18.05 338.32 14.21L338.32 14.21Q331.04 12.05 328.72 5.17L328.72 5.17Q327.84 2.53 327.84-0.35Q327.84-3.23 328.72-6.35L328.72-6.35Q330.56-12.51 334.72-15.63L334.72-15.63L335.60-14.35Q331.84-11.63 330.16-5.87L330.16-5.87Q329.36-2.99 329.36-0.35Q329.36 2.29 330.16 4.69L330.16 4.69Q332.08 10.53 338.08 12.53L338.08 12.53Q337.92 11.65 337.92 9.81L337.92 9.81Q337.92-0.67 345.52-7.15Q353.12-13.63 364.08-13.63L364.08-13.63Q371.28-13.63 375.60-9.71L375.60-9.71Q379.28-6.27 379.28-1.27Q379.28 3.73 375.92 7.37Q372.56 11.01 366.88 11.01L366.88 11.01Q363.76 11.01 361.76 9.81L361.76 9.81Q357.68 12.93 352.08 14.29L352.08 14.29Q353.68 15.81 359.56 19.89Q365.44 23.97 368.36 27.69Q371.28 31.41 371.28 36.37L371.28 36.37Q371.28 45.49 364.20 51.17Q357.12 56.85 346.28 56.85Q335.44 56.85 329.92 52.05L329.92 52.05Q325.12 47.97 325.12 42.09Q325.12 36.21 328.92 32.01Q332.72 27.81 338.40 27.81Q344.08 27.81 346.80 30.33Q349.52 32.85 349.52 36.45Q349.52 40.05 347.32 42.85Q345.12 45.65 341.60 45.65Q338.08 45.65 336 43.41L336 43.41Q334.08 41.49 333.84 38.61L333.84 38.61Q333.76 37.81 333.84 37.65L333.84 37.65L335.36 37.73Q335.28 40.53 337.12 42.37L337.12 42.37Q338.64 44.05 341.56 44.05Q344.48 44.05 346.24 41.77Q348 39.49 348 36.49Q348 33.49 345.92 31.65L345.92 31.65Q343.60 29.33 338.48 29.33Q333.36 29.33 330 33.05Q326.64 36.77 326.64 42.01Q326.64 47.25 330.96 50.93L330.96 50.93Q333.52 53.17 336.20 54.13Q338.88 55.09 343.36 55.09 zM356.96 0.05L356.96 0.05Q356.96-3.47 358.76-5.79Q360.56-8.11 363.68-8.11L363.68-8.11Q369.04-8.11 369.04-2.23Q369.04 3.65 363.20 8.85L363.20 8.85Q364.96 9.65 366.88 9.65L366.88 9.65Q371.84 9.65 374.80 6.41Q377.76 3.17 377.76-1.19Q377.76-5.55 374.56-8.59L374.56-8.59Q370.64-12.11 364.24-12.11Q357.84-12.11 353.36-8.99L353.36-8.99Q346.40-4.03 346.40 3.81L346.40 3.81Q346.40 10.29 350.72 13.25L350.72 13.25Q356.08 12.05 360.64 8.93L360.64 8.93Q356.96 5.65 356.96 0.05 zM363.60-6.67L363.60-6.67Q361.20-6.67 359.88-4.83Q358.56-2.99 358.56 0.05L358.56 0.05Q358.56 5.25 361.84 7.97L361.84 7.97Q364.24 6.29 365.84 3.41Q367.44 0.53 367.44-2.27L367.44-2.27Q367.44-6.67 363.60-6.67" style="fill: rgb(82, 86, 94);" transform="translate(-187.520,-19.783)"></path></g></g><text dy="0.35em" fill="#037ef3" font-family="Sail" font-size="55">About US</text>
</g>
</g><style type="text/css">@keyframes animate-xqflvsu5z { 0.00% {transform: translate(0.00px,0.00px) rotate(0.00deg) scale(1.00, 1.00) skew(0deg, 0.00deg) ;opacity: 1.00;}2.00% {animation-timing-function: cubic-bezier(0.20,0.39,0.50,0.97);transform: translate(0.00px,-1.08px) rotate(0.00deg) ;}36.00% {animation-timing-function: cubic-bezier(0.50,0.03,0.80,0.61);transform: translate(0.00px,-10.00px) rotate(0.00deg) ;}72.00% {transform: translate(0.00px,0.00px) rotate(0.00deg) ;}74.00% {animation-timing-function: cubic-bezier(0.23,0.43,0.48,0.91);transform: translate(0.00px,0.00px) rotate(0.00deg) scale(1.00, 0.95) ;}86.00% {animation-timing-function: cubic-bezier(0.52,0.09,0.77,0.57);transform: translate(0.00px,0.00px) rotate(0.00deg) scale(1.00, 0.80) ;}100.00% {animation-timing-function: cubic-bezier(0.52,0.09,0.77,0.57);transform: translate(0.00px,0.00px) rotate(0.00deg) scale(1.00, 1.00) ;} }</style><!-- [ldio] generated by https://loading.io --></svg>