<svg xmlns="http://www.w3.org/2000/svg" xmlns:xlink="http://www.w3.org/1999/xlink" viewBox="0 0 280 80" preserveAspectRatio="xMidYMid" style="display: block; shape-rendering: auto; background: transparent;" width="280" height="80"><style type="text/css">
  .ld-text text {
    text-anchor: middle;
    dominant-baseline: middle;
    font-size: 54px;
    opacity: 0;
    user-select: none;
    pointer-events: none;
  }
</style>
<g style="transform-origin:140px 40px;transform:scale(1)" class="ld-text">
<g transform="translate(140,40)">
  <g transform="scale(0.6750) translate(0,0)"><g class="path" style="opacity: 1; transform-origin: -154.64px -1.9px; transform: matrix3d(0.91, 0, 0, 0, 0, 0.91, 0, 0, 0, 0, 0.91, 0, 0, 0, 0, 1); animation: 1s linear -0.586667s infinite normal forwards running animate-3aktc2fdxkc; transform-box: view-box;"><path d="M83.44 36.37L83.44 36.37Q85.52 36.37 87.44 34.13L87.44 34.13L88.64 35.09Q88.40 35.41 88 35.89Q87.60 36.37 86.04 37.17Q84.48 37.97 82.64 37.97L82.64 37.97Q73.68 37.97 73.68 30.21L73.68 30.21Q73.68 27.81 74.24 23.09L74.24 23.09Q70.40 24.29 67.36 24.29L67.36 24.29Q62 24.29 56.64 21.01L56.64 21.01Q53.52 26.37 50.80 30.17Q48.08 33.97 44.48 37.57L44.48 37.57Q37.04 44.85 26.52 44.85Q16 44.85 9.76 38.13L9.76 38.13Q4.24 31.97 4.24 23.13Q4.24 14.29 9.92 7.41Q15.60 0.53 24.64 0.53Q33.68 0.53 38.40 5.89L38.40 5.89Q39.52 7.33 40 8.05L40 8.05Q44.32 9.89 49.84 14.13L49.84 14.13Q54 17.49 56 18.77L56 18.77Q57.12 16.69 59.08 13.17Q61.04 9.65 62.08 7.81Q63.12 5.97 65.20 2.61Q67.28-0.75 68.60-2.47Q69.92-4.19 72.12-6.79Q74.32-9.39 76.16-10.67L76.16-10.67Q81.68-14.59 85.44-15.23L85.44-15.23Q87.52-15.55 88.96-15.55Q90.40-15.55 92.16-15.51Q93.92-15.47 97.12-14.59L97.12-14.59L96.72-13.07Q94.80-13.63 92.64-13.87L92.64-13.87Q84.64 17.57 83.44 36.37 zM42.56 17.33L42.56 17.33Q42.56 23.25 39.16 27.81Q35.76 32.37 30 32.37L30 32.37Q26.24 32.37 23.88 30.13Q21.52 27.89 21.52 25.49Q21.52 23.09 22.24 21.53Q22.96 19.97 23.88 19.17Q24.80 18.37 25.92 17.89L25.92 17.89Q27.44 17.09 28.32 17.09L28.32 17.09L28.48 18.69Q26.48 18.69 24.80 20.61Q23.12 22.53 23.12 24.93Q23.12 27.33 25 29.05Q26.88 30.77 30 30.77L30 30.77Q35.12 30.77 38.08 26.77Q41.04 22.77 41.04 17.89Q41.04 13.01 39.04 9.41L39.04 9.41Q34.64 7.73 30.32 7.73L30.32 7.73Q22 7.73 18.56 15.49L18.56 15.49L17.04 15.01Q17.92 13.01 19.84 10.69L19.84 10.69Q23.60 6.13 30.32 6.13L30.32 6.13Q33.92 6.13 37.44 7.17L37.44 7.17L37.28 6.93Q32.88 2.13 24.60 2.13Q16.32 2.13 11.08 8.53Q5.84 14.93 5.84 23.21Q5.84 31.49 10.96 37.01L10.96 37.01Q16.72 43.25 27.04 43.25L27.04 43.25Q36.48 43.25 43.52 36.13L43.52 36.13Q47.04 32.69 49.64 29.01Q52.24 25.33 55.28 20.13L55.28 20.13Q52.56 18.37 48.68 15.29Q44.80 12.21 41.20 10.37L41.20 10.37Q42.56 13.73 42.56 17.33 zM60.48 14.13L57.44 19.65Q62.56 22.69 66.84 22.69Q71.12 22.69 74.48 21.33L74.48 21.33Q76.40 7.81 81.68-12.27L81.68-12.27Q75.28-9.23 69.92-1.47L69.92-1.47Q66 4.13 60.48 14.13L60.48 14.13" style="fill: rgb(210, 9, 98);" transform="translate(-205.320,-16.547)"></path></g><g class="path" style="opacity: 1; transform-origin: -92.52px 8.34px; transform: matrix3d(0.91, 0, 0, 0, 0, 0.91, 0, 0, 0, 0, 0.91, 0, 0, 0, 0, 1); animation: 1s linear -0.513333s infinite normal forwards running animate-3aktc2fdxkc; transform-box: view-box;"><path d="M122.96 41.81L122.96 41.81Q125.84 41.81 127.92 39.57L127.92 39.57L129.04 40.53Q127.12 43.25 122.96 43.25L122.96 43.25Q121.20 43.25 119.36 42.85L119.36 42.85Q113.92 47.81 105.44 47.81L105.44 47.81Q100.40 47.81 97.64 46.09Q94.88 44.37 94.88 41.61Q94.88 38.85 96.60 37.21Q98.32 35.57 102.72 35.57Q107.12 35.57 114.32 39.17L114.32 39.17L116.80 25.89Q113.20 32.53 107.52 32.53L107.52 32.53Q96.64 32.53 96.64 21.81L96.64 21.81Q96.64 12.85 101.16 7.41Q105.68 1.97 112.72 1.97L112.72 1.97Q116.80 1.97 119.04 4.45L119.04 4.45Q119.68 5.17 120.32 6.61L120.32 6.61L121.04 2.69Q126.96 2.69 129.68 2.21L129.68 2.21L130.72 1.97L125.44 31.49Q124.24 37.73 120.64 41.57L120.64 41.57Q121.68 41.81 122.96 41.81 zM105.68 24.29Q105.68 27.97 106.40 29.21Q107.12 30.45 109.12 30.45Q111.12 30.45 113.20 28.29Q115.28 26.13 116.20 24.25Q117.12 22.37 117.76 20.61L117.76 20.61L119.44 11.41L119.44 10.85Q119.44 3.49 112.72 3.49L112.72 3.49Q110.16 3.49 107.92 10.45Q105.68 17.41 105.68 24.29L105.68 24.29 zM105.12 46.21L105.12 46.21Q111.52 46.21 113.76 40.69L113.76 40.69L112.64 40.13Q111.68 39.65 111.48 39.53Q111.28 39.41 110.40 39.01Q109.52 38.61 109.12 38.49Q108.72 38.37 107.88 38.05Q107.04 37.73 106.48 37.61Q105.92 37.49 105.20 37.33L105.20 37.33Q104 37.09 101.68 37.09Q99.36 37.09 97.96 38.21Q96.56 39.33 96.56 41.49Q96.56 43.65 98.88 44.93Q101.20 46.21 105.12 46.21" style="fill: rgb(244, 119, 33);" transform="translate(-205.320,-16.547)"></path></g><g class="path" style="opacity: 1; transform-origin: -56.44px 0.98px; transform: matrix3d(0.91, 0, 0, 0, 0, 0.91, 0, 0, 0, 0, 0.91, 0, 0, 0, 0, 1); animation: 1s linear -0.44s infinite normal forwards running animate-3aktc2fdxkc; transform-box: view-box;"><path d="M135.52 5.81L134.32 4.85Q136.72 1.97 140.36 1.97Q144 1.97 146 3.81Q148 5.65 148 9.01L148 9.01L148 9.49Q151.60 1.97 157.36 1.97L157.36 1.97Q163.52 1.97 163.52 8.37L163.52 8.37Q163.52 11.01 161.76 13.97Q160 16.93 158.24 19.61Q156.48 22.29 156.48 24.37L156.48 24.37L154.56 24.37Q154.56 21.41 158 16.37Q161.44 11.33 161.44 8.57Q161.44 5.81 160.36 4.81Q159.28 3.81 157.16 3.81Q155.04 3.81 153 5.65Q150.96 7.49 149.60 10.29L149.60 10.29Q147.44 14.45 146.72 17.09L146.72 17.09L146.72 17.17L143.84 33.09L134.24 33.09L139.52 3.57Q137.12 3.81 135.52 5.81L135.52 5.81" style="fill: rgb(122, 193, 67);" transform="translate(-205.320,-16.547)"></path></g><g class="path" style="opacity: 1; transform-origin: -24.44px 1.34px; transform: matrix3d(0.91, 0, 0, 0, 0, 0.91, 0, 0, 0, 0, 0.91, 0, 0, 0, 0, 1); animation: 1s linear -0.366667s infinite normal forwards running animate-3aktc2fdxkc; transform-box: view-box;"><path d="M177.76 33.81Q171.60 33.81 168.40 30.73Q165.20 27.65 165.20 22.97Q165.20 18.29 166.04 14.97Q166.88 11.65 168.80 8.57Q170.72 5.49 174.60 3.73Q178.48 1.97 184.28 1.97Q190.08 1.97 193.32 5.05Q196.56 8.13 196.56 13.49L196.56 13.49Q196.56 22.61 191.72 28.21Q186.88 33.81 177.76 33.81L177.76 33.81 zM174.24 25.57L174.24 25.57Q174.24 31.97 177.96 31.97Q181.68 31.97 184.60 25.53Q187.52 19.09 187.52 10.21L187.52 10.21Q187.52 3.49 183.88 3.49Q180.24 3.49 177.24 9.61Q174.24 15.73 174.24 25.57" style="fill: rgb(0, 167, 142);" transform="translate(-205.320,-16.547)"></path></g><g class="path" style="opacity: 1; transform-origin: 47.36px -1.62px; transform: matrix3d(0.91, 0, 0, 0, 0, 0.91, 0, 0, 0, 0, 0.91, 0, 0, 0, 0, 1); animation: 1s linear -0.293333s infinite normal forwards running animate-3aktc2fdxkc; transform-box: view-box;"><path d="M221.04 8.21L221.04 8.21Q221.04 15.81 229.12 18.37L229.12 18.37Q232.32 19.33 234.44 19.45Q236.56 19.57 236.72 19.41L236.72 19.41L236.80 21.09L236.32 21.09Q227.36 21.09 222.72 16.61L222.72 16.61Q219.36 13.49 219.36 8.21L219.36 8.21Q219.36-3.15 231.40-9.39Q243.44-15.63 265.28-15.63L265.28-15.63Q276.72-15.63 281.36-13.15Q286-10.67 286-6.03L286-6.03Q286-2.35 283.68 1.45Q281.36 5.25 278.08 9.33Q274.80 13.41 273.60 16.21L273.60 16.21L277.84 16.21L277.68 17.65L273.04 17.65Q272.40 19.73 272.40 21.41L272.40 21.41L270.72 21.41Q270.72 19.49 271.20 17.65L271.20 17.65L261.04 17.65L259.36 27.01Q257.68 35.65 251.28 40.57Q244.88 45.49 237.52 45.49L237.52 45.49L237.52 43.89Q242.96 43.81 244.52 41.57Q246.08 39.33 247.60 30.61L247.60 30.61L249.76 17.65L245.68 17.65L245.84 16.21L250 16.21L255.20-13.63Q238.80-12.27 229.92-6.63Q221.04-0.99 221.04 8.21 zM284.08-6.03L284.08-6.03Q284.08-14.03 265.92-14.03L265.92-14.03Q262.64 8.61 261.28 16.21L261.28 16.21L271.76 16.21Q272.96 13.17 276.16 9.05Q279.36 4.93 281.72 1.17Q284.08-2.59 284.08-6.03" style="fill: rgb(0, 188, 228);" transform="translate(-205.320,-16.547)"></path></g><g class="path" style="opacity: 1; transform-origin: 96.84px 0.98px; transform: matrix3d(0.91, 0, 0, 0, 0, 0.91, 0, 0, 0, 0, 0.91, 0, 0, 0, 0, 1); animation: 1s linear -0.22s infinite normal forwards running animate-3aktc2fdxkc; transform-box: view-box;"><path d="M288.80 5.81L287.60 4.85Q290 1.97 293.64 1.97Q297.28 1.97 299.28 3.81Q301.28 5.65 301.28 9.01L301.28 9.01L301.28 9.49Q304.88 1.97 310.64 1.97L310.64 1.97Q316.80 1.97 316.80 8.37L316.80 8.37Q316.80 11.01 315.04 13.97Q313.28 16.93 311.52 19.61Q309.76 22.29 309.76 24.37L309.76 24.37L307.84 24.37Q307.84 21.41 311.28 16.37Q314.72 11.33 314.72 8.57Q314.72 5.81 313.64 4.81Q312.56 3.81 310.44 3.81Q308.32 3.81 306.28 5.65Q304.24 7.49 302.88 10.29L302.88 10.29Q300.72 14.45 300 17.09L300 17.09L300 17.17L297.12 33.09L287.52 33.09L292.80 3.57Q290.40 3.81 288.80 5.81L288.80 5.81" style="fill: rgb(125, 63, 152);" transform="translate(-205.320,-16.547)"></path></g><g class="path" style="opacity: 1; transform-origin: 126.92px 1.34px; transform: matrix3d(0.91, 0, 0, 0, 0, 0.91, 0, 0, 0, 0, 0.91, 0, 0, 0, 0, 1); animation: 1s linear -0.146667s infinite normal forwards running animate-3aktc2fdxkc; transform-box: view-box;"><path d="M335.76 1.97L335.76 1.97Q345.92 1.97 345.92 10.05L345.92 10.05Q345.92 15.09 341.16 17.69Q336.40 20.29 327.60 20.37L327.60 20.37Q327.44 23.25 327.44 24.93L327.44 24.93Q327.44 28.53 329.08 30.25Q330.72 31.97 333.20 31.97Q335.68 31.97 337.72 31.01Q339.76 30.05 340.96 28.73Q342.16 27.41 343.04 25.97L343.04 25.97Q344.64 23.33 344.64 22.61L344.64 22.61L346.08 23.25Q345.84 24.53 344.64 26.65Q343.44 28.77 342 30.13Q340.56 31.49 337.76 32.65Q334.96 33.81 331.52 33.81L331.52 33.81Q325.04 33.81 321.72 30.73Q318.40 27.65 318.40 22.29L318.40 22.29Q318.40 12.77 323.12 7.37Q327.84 1.97 335.76 1.97 zM343.92 10.05Q343.92 7.41 342.36 5.69Q340.80 3.97 337.72 3.97Q334.64 3.97 331.72 7.65Q328.80 11.33 327.84 18.53L327.84 18.53Q343.92 18.45 343.92 10.05L343.92 10.05" style="fill: rgb(210, 9, 98);" transform="translate(-205.320,-16.547)"></path></g><g class="path" style="opacity: 1; transform-origin: 156.36px -0.5px; transform: matrix3d(0.91, 0, 0, 0, 0, 0.91, 0, 0, 0, 0, 0.91, 0, 0, 0, 0, 1); animation: 1s linear -0.0733333s infinite normal forwards running animate-3aktc2fdxkc; transform-box: view-box;"><path d="M357.76 31.73L357.76 31.73Q365.68 31.73 365.68 20.05L365.68 20.05Q365.68 17.17 364.84 13.25Q364 9.33 363.84 8.37L363.84 8.37Q358.96 13.41 352.88 14.45L352.88 14.45L352.88 12.53Q358.64 11.25 363.68 5.97L363.68 5.97L363.68 5.65Q363.68 3.73 364.24 1.89Q364.80 0.05 365.36-0.83L365.36-0.83L365.92-1.71L367.84-1.71Q367.84 1.81 368.96 4.73Q370.08 7.65 371.44 9.45Q372.80 11.25 373.92 14.17Q375.04 17.09 375.04 20.61L375.04 20.61Q375.04 26.29 370.76 30.05Q366.48 33.81 360.48 33.81Q354.48 33.81 351.40 31.09Q348.32 28.37 348.32 24.81Q348.32 21.25 350.08 19.69Q351.84 18.13 354.24 18.13Q356.64 18.13 358.20 19.69Q359.76 21.25 359.76 23.69Q359.76 26.13 358.24 27.81Q356.72 29.49 354.32 29.49L354.32 29.49Q353.28 29.49 352.16 29.17L352.16 29.17Q353.92 31.73 357.76 31.73" style="fill: rgb(244, 119, 33);" transform="translate(-205.320,-16.547)"></path></g><g class="path" style="opacity: 1; transform-origin: 191.56px -9.02px; transform: matrix3d(0.91, 0, 0, 0, 0, 0.91, 0, 0, 0, 0, 0.91, 0, 0, 0, 0, 1); animation: 1s linear 0s infinite normal forwards running animate-3aktc2fdxkc; transform-box: view-box;"><path d="M409.68 32.21L409.68 32.21Q411.60 32.21 413.68 29.97L413.68 29.97L414.88 30.93Q414.32 32.05 412.40 32.93Q410.48 33.81 408.16 33.81L408.16 33.81Q400.88 33.81 400.88 27.25L400.88 27.25Q400.88 24.45 402.32 17.25Q403.76 10.05 403.76 7.81L403.76 7.81Q403.76 4.37 400.48 4.37L400.48 4.37Q397.76 4.37 395.24 8.05Q392.72 11.73 391.12 18.05L391.12 18.05L388.48 33.09L378.88 33.09L387.76-17.15Q385.36-16.91 383.76-14.91L383.76-14.91L382.56-15.87Q384.96-18.75 388.60-18.75Q392.24-18.75 394.24-16.91Q396.24-15.07 396.24-11.71L396.24-11.71Q396.24-11.07 396.08-9.63L396.08-9.63L392.72 9.33Q396 1.97 402.88 1.97L402.88 1.97Q407.60 1.97 410.24 4.65Q412.88 7.33 412.88 12.05L412.88 12.05Q412.88 14.53 411.36 21.61Q409.84 28.69 409.68 32.21" style="fill: rgb(122, 193, 67);" transform="translate(-205.320,-16.547)"></path></g></g><text dy="0.35em" fill="#d20962" font-family="Sail" font-size="54">Agro Fresh</text>
</g>
</g><style type="text/css">@keyframes animate-3aktc2fdxkc { 0.00% {transform: translate(0.00px,0.00px) rotate(0.00deg) scale(0.91, 0.91) skew(0deg, 0.00deg) ;opacity: 1.00;}4.00% {transform: translate(0.00px,0.00px) rotate(0.00deg) scale(0.91, 0.91) ;}8.00% {animation-timing-function: cubic-bezier(0.69,0.60,0.35,0.27);transform: translate(0.00px,0.00px) rotate(0.00deg) scale(0.91, 0.91) ;}14.00% {transform: translate(0.00px,0.00px) rotate(0.00deg) scale(0.93, 0.93) ;}18.00% {transform: translate(0.00px,0.00px) rotate(0.00deg) scale(0.94, 0.94) ;}22.00% {animation-timing-function: cubic-bezier(0.67,0.66,0.34,0.33);transform: translate(0.00px,0.00px) rotate(0.00deg) scale(0.96, 0.96) ;}26.00% {transform: translate(0.00px,0.00px) rotate(0.00deg) scale(0.97, 0.97) ;}30.00% {transform: translate(0.00px,0.00px) rotate(0.00deg) scale(0.99, 0.99) ;}34.00% {animation-timing-function: cubic-bezier(0.65,0.71,0.32,0.38);transform: translate(0.00px,0.00px) rotate(0.00deg) scale(1.01, 1.01) ;}40.00% {animation-timing-function: cubic-bezier(0.64,0.74,0.31,0.41);transform: translate(0.00px,0.00px) rotate(0.00deg) scale(1.02, 1.02) ;}46.00% {animation-timing-function: cubic-bezier(0.60,0.91,0.23,0.63);transform: translate(0.00px,0.00px) rotate(0.00deg) scale(1.03, 1.03) ;}50.00% {transform: translate(0.00px,0.00px) rotate(0.00deg) scale(1.03, 1.03) ;}54.00% {transform: translate(0.00px,0.00px) rotate(0.00deg) scale(1.03, 1.03) ;}58.00% {animation-timing-function: cubic-bezier(0.69,0.60,0.35,0.27);transform: translate(0.00px,0.00px) rotate(0.00deg) scale(1.03, 1.03) ;}64.00% {transform: translate(0.00px,0.00px) rotate(0.00deg) scale(1.01, 1.01) ;}68.00% {transform: translate(0.00px,0.00px) rotate(0.00deg) scale(1.00, 1.00) ;}72.00% {animation-timing-function: cubic-bezier(0.67,0.66,0.34,0.33);transform: translate(0.00px,0.00px) rotate(0.00deg) scale(0.98, 0.98) ;}76.00% {animation-timing-function: cubic-bezier(0.66,0.68,0.33,0.35);transform: translate(0.00px,0.00px) rotate(0.00deg) scale(0.97, 0.97) ;}82.00% {animation-timing-function: cubic-bezier(0.65,0.71,0.32,0.38);transform: translate(0.00px,0.00px) rotate(0.00deg) scale(0.94, 0.94) ;}88.00% {animation-timing-function: cubic-bezier(0.65,0.73,0.31,0.40);transform: translate(0.00px,0.00px) rotate(0.00deg) scale(0.92, 0.92) ;}94.00% {animation-timing-function: cubic-bezier(0.63,0.80,0.28,0.48);transform: translate(0.00px,0.00px) rotate(0.00deg) scale(0.91, 0.91) ;}100.00% {animation-timing-function: cubic-bezier(0.63,0.80,0.28,0.48);transform: translate(0.00px,0.00px) rotate(0.00deg) scale(0.91, 0.91) ;} }</style><!-- [ldio] generated by https://loading.io --></svg>